HIERARCHY
ROOT hip
{
  OFFSET 0 0 0
  CHANNELS 6 Xposition Yposition Zposition Zrotation Yrotation Xrotation
  JOINT abdomen
  {
    OFFSET 0 20.6881 -0.73152
    CHANNELS 3 Zrotation Xrotation Yrotation
    JOINT chest
    {
      OFFSET 0 11.7043 -0.48768
      CHANNELS 3 Zrotation Xrotation Yrotation
      JOINT neck
      {
        OFFSET 0 22.1894 -2.19456
        CHANNELS 3 Zrotation Xrotation Yrotation
        JOINT head
        {
          OFFSET -0.24384 7.07133 1.2192
          CHANNELS 3 Zrotation Xrotation Yrotation
          JOINT leftEye
          {
            OFFSET 4.14528 8.04674 8.04672
            CHANNELS 3 Zrotation Xrotation Yrotation
            End Site
            {
              OFFSET 1 0 0
            }
          }
          JOINT rightEye
          {
            OFFSET -3.6576 8.04674 8.04672
            CHANNELS 3 Zrotation Xrotation Yrotation
            End Site
            {
              OFFSET 1 0 0
            }
          }
        }
      }
      JOINT rCollar
      {
        OFFSET -2.68224 19.2634 -4.8768
        CHANNELS 3 Zrotation Xrotation Yrotation
        JOINT rShldr
        {
          OFFSET -8.77824 -1.95073 1.46304
          CHANNELS 3 Zrotation Xrotation Yrotation
          JOINT rForeArm
          {
            OFFSET -28.1742 -1.7115 0.48768
            CHANNELS 3 Zrotation Xrotation Yrotation
            JOINT rHand
            {
              OFFSET -22.5879 0.773209 7.07136
              CHANNELS 3 Zrotation Xrotation Yrotation
              JOINT rThumb1
              {
                OFFSET -1.2192 -0.487915 3.41376
                CHANNELS 3 Zrotation Xrotation Yrotation
                JOINT rThumb2
                {
                  OFFSET -3.37035 -0.52449 3.41376
                  CHANNELS 3 Zrotation Xrotation Yrotation
                  End Site
                  {
                    OFFSET -1.78271 -1.18214 1.43049
                  }
                }
              }
              JOINT rIndex1
              {
                OFFSET -7.75947 0.938293 5.60832
                CHANNELS 3 Zrotation Xrotation Yrotation
                JOINT rIndex2
                {
                  OFFSET -2.54057 -0.884171 1.56538
                  CHANNELS 3 Zrotation Xrotation Yrotation
                  End Site
                  {
                    OFFSET -1.62519 -0.234802 1.16502
                  }
                }
              }
              JOINT rMid1
              {
                OFFSET -8.24714 1.18213 3.41376
                CHANNELS 3 Zrotation Xrotation Yrotation
                JOINT rMid2
                {
                  OFFSET -3.10165 -0.590103 1.0647
                  CHANNELS 3 Zrotation Xrotation Yrotation
                  End Site
                  {
                    OFFSET -2.48547 -0.328903 0.83742
                  }
                }
              }
              JOINT rRing1
              {
                OFFSET -8.82822 0.546677 1.51678
                CHANNELS 3 Zrotation Xrotation Yrotation
                JOINT rRing2
                {
                  OFFSET -2.60934 -0.819778 -0.0198488
                  CHANNELS 3 Zrotation Xrotation Yrotation
                  End Site
                  {
                    OFFSET -2.33842 -0.294052 0.168128
                  }
                }
              }
              JOINT rPinky1
              {
                OFFSET -8.27202 -0.0477905 -0.4584
                CHANNELS 3 Zrotation Xrotation Yrotation
                JOINT rPinky2
                {
                  OFFSET -1.82734 -0.647385 -0.700984
                  CHANNELS 3 Zrotation Xrotation Yrotation
                  End Site
                  {
                    OFFSET -1.69225 -0.51767 -0.607171
                  }
                }
              }
            }
          }
        }
      }
      JOINT lCollar
      {
        OFFSET 2.68224 19.2634 -4.8768
        CHANNELS 3 Zrotation Xrotation Yrotation
        JOINT lShldr
        {
          OFFSET 8.77824 -1.95073 1.46304
          CHANNELS 3 Zrotation Xrotation Yrotation
          JOINT lForeArm
          {
            OFFSET 28.1742 -1.7115 0.48768
            CHANNELS 3 Zrotation Xrotation Yrotation
            JOINT lHand
            {
              OFFSET 22.5879 0.773209 7.07136
              CHANNELS 3 Zrotation Xrotation Yrotation
              JOINT lThumb1
              {
                OFFSET 1.2192 -0.487915 3.41376
                CHANNELS 3 Zrotation Xrotation Yrotation
                JOINT lThumb2
                {
                  OFFSET 3.37035 -0.52449 3.41376
                  CHANNELS 3 Zrotation Xrotation Yrotation
                  End Site
                  {
                    OFFSET 1.78271 -1.18214 1.43049
                  }
                }
              }
              JOINT lIndex1
              {
                OFFSET 7.75947 0.938293 5.60832
                CHANNELS 3 Zrotation Xrotation Yrotation
                JOINT lIndex2
                {
                  OFFSET 2.54057 -0.884171 1.56538
                  CHANNELS 3 Zrotation Xrotation Yrotation
                  End Site
                  {
                    OFFSET 1.62519 -0.234802 1.16502
                  }
                }
              }
              JOINT lMid1
              {
                OFFSET 8.24714 1.18213 3.41376
                CHANNELS 3 Zrotation Xrotation Yrotation
                JOINT lMid2
                {
                  OFFSET 3.10165 -0.590103 1.0647
                  CHANNELS 3 Zrotation Xrotation Yrotation
                  End Site
                  {
                    OFFSET 2.48547 -0.328903 0.83742
                  }
                }
              }
              JOINT lRing1
              {
                OFFSET 8.82822 0.546677 1.51678
                CHANNELS 3 Zrotation Xrotation Yrotation
                JOINT lRing2
                {
                  OFFSET 2.60934 -0.819778 -0.0198488
                  CHANNELS 3 Zrotation Xrotation Yrotation
                  End Site
                  {
                    OFFSET 2.33842 -0.294052 0.168128
                  }
                }
              }
              JOINT lPinky1
              {
                OFFSET 8.27202 -0.0477905 -0.4584
                CHANNELS 3 Zrotation Xrotation Yrotation
                JOINT lPinky2
                {
                  OFFSET 1.82734 -0.647385 -0.700984
                  CHANNELS 3 Zrotation Xrotation Yrotation
                  End Site
                  {
                    OFFSET 1.69225 -0.51767 -0.607171
                  }
                }
              }
            }
          }
        }
      }
    }
  }
  JOINT rButtock
  {
    OFFSET -8.77824 4.35084 1.2192
    CHANNELS 3 Zrotation Xrotation Yrotation
    JOINT rThigh
    {
      OFFSET 0 -1.70687 -2.19456
      CHANNELS 3 Zrotation Xrotation Yrotation
      JOINT rShin
      {
        OFFSET 0 -36.8199 0.73152
        CHANNELS 3 Zrotation Xrotation Yrotation
        JOINT rFoot
        {
          OFFSET 0.73152 -45.1104 -5.12064
          CHANNELS 3 Zrotation Xrotation Yrotation
          End Site
          {
            OFFSET -1.1221 -3.69964 12.103
          }
        }
      }
    }
  }
  JOINT lButtock
  {
    OFFSET 8.77824 4.35084 1.2192
    CHANNELS 3 Zrotation Xrotation Yrotation
    JOINT lThigh
    {
      OFFSET 0 -1.70687 -2.19456
      CHANNELS 3 Zrotation Xrotation Yrotation
      JOINT lShin
      {
        OFFSET 0 -36.8199 0.73152
        CHANNELS 3 Zrotation Xrotation Yrotation
        JOINT lFoot
        {
          OFFSET -0.73152 -45.1104 -5.12064
          CHANNELS 3 Zrotation Xrotation Yrotation
          End Site
          {
            OFFSET 1.1221 -3.69964 12.103
          }
        }
      }
    }
  }
}
MOTION
Frames:	6
Frame Time:	0.00833333
152.979 85.1237 22.0284 0.0 0.0 0.0 0.435978 -0.0238512 0.0128203 0.121277 -0.0396247 0.0210496 -5.81517e-15 0.0 2.48481e-17 -1.72508e-14 3.18055e-15 9.78393e-17 -0.0 0.0 0.0 -0.0 0.0 0.0 -2.78377e-15 1.1104e-16 1.49089e-16 -5.85277e-14 2.24875e-15 1.19271e-15 -1.02011e-12 3.89618e-13 1.59028e-14 -1.1836e-11 9.90196e-14 6.36111e-14 -2.78926e-11 1.05755e-12 1.84472e-13 -4.81779e-11 1.82882e-12 2.98177e-13 -2.78843e-11 1.0631e-12 1.68569e-13 7.73091 5.47488 0.417314 -2.78893e-11 1.05873e-12 1.78111e-13 2.90554 0.965183 0.102902 -2.78797e-11 1.05813e-12 1.75726e-13 10.2786 0.731801 0.0259123 -2.78943e-11 1.05634e-12 1.81292e-13 2.22167 -0.733487 -0.20892 -2.88179e-15 1.12399e-16 -1.49089e-16 -6.23669e-14 2.3792e-15 -9.93923e-16 -1.04362e-12 -2.30789e-13 1.90833e-14 -1.18147e-11 7.06033e-13 6.04305e-14 -2.78935e-11 1.02896e-12 1.65389e-13 -4.81667e-11 1.77157e-12 2.98177e-13 -2.79014e-11 1.03448e-12 1.78111e-13 -7.73091 5.47488 -0.417314 -2.78952e-11 1.0299e-12 1.7175e-13 -2.90554 0.965183 -0.102902 -2.79075e-11 1.02961e-12 1.72545e-13 -10.2786 0.731801 -0.0259123 -2.78935e-11 1.02811e-12 1.7175e-13 -2.22167 -0.733487 0.20892 -2.03217e-16 0.0 -3.88251e-19 0.651835 -4.71111 -0.069471 -0.000843031 2.9981 0.00382824 -0.326224 1.72323 0.0697676 2.03217e-16 0.0 3.88251e-19 0.0329952 -2.68024 0.0231634 0.00579602 -0.679775 0.0505513 0.296309 3.37021 -0.0967012
146.806 83.7274 9.91201 -72.0241 -80.6406 83.1049 4.56586 -0.626024 1.61035 0.396083 -4.06785 0.426052 -0.906725 -1.10052 -0.367487 -1.61376 4.43355 -0.543353 -0.0 0.0 0.0 -0.0 0.0 0.0 8.61253e-14 1.28362e-12 -4.21462e-14 16.1867 13.7849 0.604001 -5.75116 -3.01315 8.50614 0.0221865 -3.30506 -0.461708 -1.57802e-10 -6.15596e-12 -2.99783e-11 -2.71123e-10 -1.00323e-11 -5.29131e-11 -1.57792e-10 -6.15193e-12 -2.99925e-11 7.73091 5.47488 0.417314 -1.57799e-10 -6.15534e-12 -2.99819e-11 2.90554 0.965183 0.102902 -1.57793e-10 -6.15567e-12 -2.99819e-11 10.2786 0.731801 0.0259123 -1.57806e-10 -6.15614e-12 -2.99751e-11 2.22167 -0.733487 -0.20892 8.60252e-14 1.28361e-12 -4.24456e-14 -22.8455 3.38303 6.0496 5.00229 -2.45249 -7.61039 -0.0100217 2.29478 -0.321703 -5.67089e-10 -7.01168e-10 -7.08399e-10 -9.84548e-10 -1.2077e-09 -1.22036e-09 -5.67098e-10 -7.01163e-10 -7.08387e-10 -7.73091 5.47488 -0.417314 -5.6709e-10 -7.01168e-10 -7.08393e-10 -2.90554 0.965183 -0.102902 -5.671e-10 -7.01169e-10 -7.08394e-10 -10.2786 0.731801 -0.0259123 -5.67088e-10 -7.01169e-10 -7.08397e-10 -2.22167 -0.733487 0.20892 -2.03217e-16 0.0 -3.88251e-19 7.86036 -4.46076 4.45403 0.0176023 5.47485 0.0957809 -0.0739168 -6.57041 -5.00492 2.03217e-16 0.0 3.88251e-19 4.25943 -12.2527 -4.73817 -0.0482945 0.596751 -0.306945 0.784794 -3.72955 7.90195
145.38 83.7586 10.0603 -74.391 -80.4049 85.4767 8.96783 -1.23122 3.29307 0.748172 -8.32724 0.859701 -1.88353 -2.25436 -0.761758 -3.23328 9.07499 -1.13688 -0.0 0.0 0.0 -0.0 0.0 0.0 1.81354e-13 2.66602e-12 -8.85275e-14 32.9105 28.3242 1.3915 -10.8584 -5.96778 17.558 -0.0126438 -6.79662 -0.954704 -2.77742e-10 -8.83586e-12 -7.19875e-11 -4.7671e-10 -1.40215e-11 -1.26544e-10 -2.77731e-10 -8.83344e-12 -7.2e-11 7.73091 5.47488 0.417314 -2.7774e-10 -8.83588e-12 -7.19881e-11 2.90554 0.965183 0.102902 -2.77737e-10 -8.83595e-12 -7.19856e-11 10.2786 0.731801 0.0259123 -2.77749e-10 -8.83506e-12 -7.19775e-11 2.22167 -0.733487 -0.20892 1.8125e-13 2.66601e-12 -8.88288e-14 -47.776 6.9266 12.4779 9.61928 -4.9244 -15.7485 0.00777758 4.65357 -0.654199 -1.14426e-09 -1.44443e-09 -1.44139e-09 -1.98652e-09 -2.488e-09 -2.483e-09 -1.14427e-09 -1.44442e-09 -1.44138e-09 -7.73091 5.47488 -0.417314 -1.14426e-09 -1.44443e-09 -1.44138e-09 -2.90554 0.965183 -0.102902 -1.14427e-09 -1.44443e-09 -1.44139e-09 -10.2786 0.731801 -0.0259123 -1.14426e-09 -1.44443e-09 -1.44139e-09 -2.22167 -0.733487 0.20892 -2.03217e-16 0.0 -3.88251e-19 15.4523 -4.21742 9.26373 0.0274513 8.05353 0.189802 -1.46047 -15.1869 -10.7204 2.03217e-16 0.0 3.88251e-19 6.91636 -22.1217 -10.3472 -0.087689 1.83125 -0.683045 3.51616 -10.9661 16.7138
143.846 83.7132 10.2625 -76.7784 -80.2289 87.9313 12.9263 -1.82467 4.80758 1.11988 -12.1218 1.26096 -2.76258 -3.30102 -1.10409 -4.58315 13.2958 -1.66995 -0.0 0.0 0.0 -0.0 0.0 0.0 2.63943e-13 3.85062e-12 -1.26737e-13 47.4433 41.333 2.34394 -14.6451 -8.2441 25.7684 -0.0952849 -9.91259 -1.40378 -4.1762e-10 -2.0583e-11 -9.03037e-11 -7.17012e-10 -3.37544e-11 -1.59336e-10 -4.17609e-10 -2.0582e-11 -9.03147e-11 7.73091 5.47488 0.417314 -4.17619e-10 -2.05835e-11 -9.03018e-11 2.90554 0.965183 0.102902 -4.17618e-10 -2.05833e-11 -9.02972e-11 10.2786 0.731801 0.0259123 -4.1763e-10 -2.05811e-11 -9.0288e-11 2.22167 -0.733487 -0.20892 2.63839e-13 3.85061e-12 -1.27039e-13 -70.6659 9.6948 18.3888 13.0982 -6.83939 -22.983 0.0477169 6.88348 -0.971336 -1.64548e-09 -2.10556e-09 -2.12553e-09 -2.85731e-09 -3.62664e-09 -3.66166e-09 -1.64549e-09 -2.10556e-09 -2.12552e-09 -7.73091 5.47488 -0.417314 -1.64548e-09 -2.10557e-09 -2.12552e-09 -2.90554 0.965183 -0.102902 -1.64548e-09 -2.10557e-09 -2.12553e-09 -10.2786 0.731801 -0.0259123 -1.64548e-09 -2.10556e-09 -2.12554e-09 -2.22167 -0.733487 0.20892 -2.03217e-16 0.0 -3.88251e-19 22.1572 -3.89037 13.4917 0.0302717 10.4283 0.283062 -4.21357 -22.3909 -16.3159 2.03217e-16 0.0 3.88251e-19 7.33566 -30.4912 -16.23 -0.108635 3.14933 -1.02343 7.7213 -16.4501 24.934
142.101 83.4811 10.4841 -79.38 -80.0121 90.6575 15.7137 -2.39341 5.90003 1.41734 -14.7566 1.55779 -3.36689 -4.08023 -1.31503 -5.44525 16.4699 -2.0144 -0.0 0.0 0.0 -0.0 0.0 0.0 3.14934e-13 4.54075e-12 -1.44516e-13 57.3895 50.5383 3.20509 -16.9202 -9.57104 31.6404 -0.182759 -12.092 -1.72538 -6.07342e-10 -5.49981e-11 -4.93877e-11 -1.0441e-09 -9.28468e-11 -9.00296e-11 -6.07331e-10 -5.49982e-11 -4.93972e-11 7.73091 5.47488 0.417314 -6.07341e-10 -5.49986e-11 -4.93845e-11 2.90554 0.965183 0.102902 -6.07342e-10 -5.49982e-11 -4.93781e-11 10.2786 0.731801 0.0259123 -6.07352e-10 -5.4995e-11 -4.93686e-11 2.22167 -0.733487 -0.20892 3.14836e-13 4.54073e-12 -1.44815e-13 -86.8765 10.9753 22.7509 15.1056 -7.88205 -27.8062 0.0957499 8.7918 -1.2455 -1.95682e-09 -2.56139e-09 -2.68753e-09 -3.40015e-09 -4.41114e-09 -4.63038e-09 -1.95683e-09 -2.56139e-09 -2.68752e-09 -7.73091 5.47488 -0.417314 -1.95682e-09 -2.5614e-09 -2.68753e-09 -2.90554 0.965183 -0.102902 -1.95682e-09 -2.5614e-09 -2.68754e-09 -10.2786 0.731801 -0.0259123 -1.95682e-09 -2.56139e-09 -2.68755e-09 -2.22167 -0.733487 0.20892 -2.03217e-16 0.0 -3.88251e-19 26.6974 -3.4079 16.2703 0.0301657 12.2932 0.372047 -6.89111 -26.8459 -20.4097 2.03217e-16 0.0 3.88251e-19 6.21078 -35.9826 -20.9526 -0.109647 4.67673 -1.27385 11.1139 -19.1539 30.4811
140.188 83.2983 10.6994 -82.0875 -79.7661 93.4443 16.9431 -2.94003 6.44674 1.53302 -15.7716 1.69898 -3.5656 -4.48824 -1.33134 -5.72527 18.1511 -2.04502 -0.0 0.0 0.0 -0.0 0.0 0.0 3.23212e-13 4.56025e-12 -1.33227e-13 61.5522 54.485 3.45429 -17.7983 -10.0811 34.1206 -0.223764 -12.9416 -1.85282 -9.10391e-10 -1.37006e-10 1.07205e-10 -1.56781e-09 -2.34416e-10 1.7858e-10 -9.10381e-10 -1.37006e-10 1.07196e-10 7.73091 5.47488 0.417314 -9.1039e-10 -1.37006e-10 1.07207e-10 2.90554 0.965183 0.102902 -9.10391e-10 -1.37005e-10 1.07215e-10 10.2786 0.731801 0.0259123 -9.10399e-10 -1.37001e-10 1.07224e-10 2.22167 -0.733487 -0.20892 3.23134e-13 4.56023e-12 -1.33518e-13 -93.0687 10.4594 24.8317 15.5883 -8.03643 -29.1463 0.13654 10.2693 -1.45954 -1.9619e-09 -2.8073e-09 -3.20006e-09 -3.41545e-09 -4.8341e-09 -5.51578e-09 -1.96191e-09 -2.8073e-09 -3.20005e-09 -7.73091 5.47488 -0.417314 -1.9619e-09 -2.80731e-09 -3.20006e-09 -2.90554 0.965183 -0.102902 -1.9619e-09 -2.80731e-09 -3.20006e-09 -10.2786 0.731801 -0.0259123 -1.96189e-09 -2.8073e-09 -3.20008e-09 -2.22167 -0.733487 0.20892 -2.03217e-16 0.0 -3.88251e-19 28.3776 -2.69718 17.1314 0.0322587 13.408 0.456561 -7.7963 -28.127 -21.5997 2.03217e-16 0.0 3.88251e-19 5.24401 -38.1841 -22.6723 -0.0933734 6.48488 -1.40311 11.421 -18.9651 31.5683
